{
  "accessors": [
    {
      "bufferView": 2,
      "componentType": 5126,
      "count": 65532,
      "max": [
        32.002281188964844,
        40.303768157958984,
        -29.102460861206055
      ],
      "min": [
        -62.358509063720703,
        -61.261219024658203,
        -73.823020935058594
      ],
      "type": "VEC3"
    },
    {
      "bufferView": 2,
      "byteOffset": 786384,
      "componentType": 5126,
      "count": 65532,
      "max": [
        0.99999630451202393,
        0.99946832656860352,
        0.9999459981918335
      ],
      "min": [
        -0.99998778104782104,
        -0.99979156255722046,
        -0.9999966025352478
      ],
      "type": "VEC3"
    },
    {
      "bufferView": 1,
      "componentType": 5126,
      "count": 65532,
      "max": [
        0.99731999635696411,
        0.98104000091552734
      ],
      "min": [
        0.0027499999850988388,
        0.0020200000144541264
      ],
      "type": "VEC2"
    },
    {
      "bufferView": 0,
      "componentType": 5125,
      "count": 329142,
      "max": [
        65531
      ],
      "min": [
        0
      ],
      "type": "SCALAR"
    },
    {
      "bufferView": 2,
      "byteOffset": 1572768,
      "componentType": 5126,
      "count": 65532,
      "max": [
        52.741798400878906,
        61.330551147460938,
        9.4778299331665039
      ],
      "min": [
        -47.953590393066406,
        -50.150421142578125,
        -48.048660278320312
      ],
      "type": "VEC3"
    },
    {
      "bufferView": 2,
      "byteOffset": 2359152,
      "componentType": 5126,
      "count": 65532,
      "max": [
        0.99940043687820435,
        0.99940794706344604,
        0.99975371360778809
      ],
      "min": [
        -0.99990659952163696,
        -0.99999433755874634,
        -0.99995958805084229
      ],
      "type": "VEC3"
    },
    {
      "bufferView": 1,
      "byteOffset": 524256,
      "componentType": 5126,
      "count": 65532,
      "max": [
        0.99962997436523438,
        0.99682998657226562
      ],
      "min": [
        0.0025700000114738941,
        0.016230000182986259
      ],
      "type": "VEC2"
    },
    {
      "bufferView": 0,
      "byteOffset": 1316568,
      "componentType": 5125,
      "count": 298704,
      "max": [
        65531
      ],
      "min": [
        0
      ],
      "type": "SCALAR"
    },
    {
      "bufferView": 2,
      "byteOffset": 3145536,
      "componentType": 5126,
      "count": 65532,
      "max": [
        52.705970764160156,
        61.520580291748047,
        19.149080276489258
      ],
      "min": [
        -63.888999938964844,
        -50.777599334716797,
        -25.173149108886719
      ],
      "type": "VEC3"
    },
    {
      "bufferView": 2,
      "byteOffset": 3931920,
      "componentType": 5126,
      "count": 65532,
      "max": [
        0.9996565580368042,
        0.99994534254074097,
        0.99959266185760498
      ],
      "min": [
        -0.99998551607131958,
        -0.99999618530273438,
        -0.99988013505935669
      ],
      "type": "VEC3"
    },
    {
      "bufferView": 1,
      "byteOffset": 1048512,
      "componentType": 5126,
      "count": 65532,
      "max": [
        0.99962997436523438,
        0.99742001295089722
      ],
      "min": [
        0.0040099998004734516,
        0.002630000002682209
      ],
      "type": "VEC2"
    },
    {
      "bufferView": 0,
      "byteOffset": 2511384,
      "componentType": 5125,
      "count": 263691,
      "max": [
        65531
      ],
      "min": [
        0
      ],
      "type": "SCALAR"
    },
    {
      "bufferView": 2,
      "byteOffset": 4718304,
      "componentType": 5126,
      "count": 65532,
      "max": [
        63.888999938964844,
        65.112373352050781,
        26.157119750976562
      ],
      "min": [
        -59.572158813476562,
        -65.663909912109375,
        -16.895990371704102
      ],
      "type": "VEC3"
    },
    {
      "bufferView": 2,
      "byteOffset": 5504688,
      "componentType": 5126,
      "count": 65532,
      "max": [
        0.99985456466674805,
        0.99960052967071533,
        0.99944144487380981
      ],
      "min": [
        -0.99991500377655029,
        -0.99978631734848022,
        -0.99999010562896729
      ],
      "type": "VEC3"
    },
    {
      "bufferView": 1,
      "byteOffset": 1572768,
      "componentType": 5126,
      "count": 65532,
      "max": [
        0.99962997436523438,
        0.9963499903678894
      ],
      "min": [
        0.0025700000114738941,
        0.0019600000232458115
      ],
      "type": "VEC2"
    },
    {
      "bufferView": 0,
      "byteOffset": 3566148,
      "componentType": 5125,
      "count": 248520,
      "max": [
        65531
      ],
      "min": [
        0
      ],
      "type": "SCALAR"
    },
    {
      "bufferView": 2,
      "byteOffset": 6291072,
      "componentType": 5126,
      "count": 43289,
      "max": [
        63.84490966796875,
        65.663909912109375,
        35.810939788818359
      ],
      "min": [
        -46.608821868896484,
        -55.238609313964844,
        -3.9576399326324463
      ],
      "type": "VEC3"
    },
    {
      "bufferView": 2,
      "byteOffset": 6810540,
      "componentType": 5126,
      "count": 43289,
      "max": [
        0.99976569414138794,
        0.9997602105140686,
        0.99998670816421509
      ],
      "min": [
        -0.99823582172393799,
        -0.99829459190368652,
        -0.99976158142089844
      ],
      "type": "VEC3"
    },
    {
      "bufferView": 1,
      "byteOffset": 2097024,
      "componentType": 5126,
      "count": 43289,
      "max": [
        0.99673998355865479,
        0.99759000539779663
      ],
      "min": [
        0.0028599998913705349,
        0.003229999914765358
      ],
      "type": "VEC2"
    },
    {
      "bufferView": 0,
      "byteOffset": 4560228,
      "componentType": 5125,
      "count": 204795,
      "max": [
        43288
      ],
      "min": [
        0
      ],
      "type": "SCALAR"
    }
  ],
  "asset": {
    "extras": {
      "author": "Ronen (https://sketchfab.com/ronenh)",
      "license": "CC-BY-ND-4.0 (http://creativecommons.org/licenses/by-nd/4.0/)",
      "source": "https://sketchfab.com/3d-models/bald-eagle-d0b21af81c2f4745b2df9aa7c66899ec",
      "title": "Bald Eagle"
    },
    "generator": "Sketchfab-9.73.0",
    "version": "2.0"
  },
  "bufferViews": [
    {
      "buffer": 0,
      "byteLength": 5379408,
      "byteOffset": 0,
      "name": "floatBufferViews",
      "target": 34963
    },
    {
      "buffer": 0,
      "byteLength": 2443336,
      "byteOffset": 5379408,
      "byteStride": 8,
      "name": "floatBufferViews",
      "target": 34962
    },
    {
      "buffer": 0,
      "byteLength": 7330008,
      "byteOffset": 7822744,
      "byteStride": 12,
      "name": "floatBufferViews",
      "target": 34962
    }
  ],
  "buffers": [
    {
      "byteLength": 15152752,
      "uri": "scene.bin"
    }
  ],
  "extensionsUsed": [
    "KHR_materials_unlit"
  ],
  "images": [
    {
      "uri": "textures/material0_baseColor.jpeg"
    }
  ],
  "materials": [
    {
      "doubleSided": true,
      "emissiveFactor": [
        0,
        0,
        0
      ],
      "emissiveTexture": {
        "index": 0,
        "texCoord": 0
      },
      "extensions": {
        "KHR_materials_unlit": {}
      },
      "name": "material0",
      "pbrMetallicRoughness": {
        "baseColorFactor": [
          1,
          1,
          1,
          1
        ],
        "baseColorTexture": {
          "index": 0,
          "texCoord": 0
        },
        "metallicFactor": 0,
        "roughnessFactor": 1
      }
    }
  ],
  "meshes": [
    {
      "primitives": [
        {
          "attributes": {
            "NORMAL": 1,
            "POSITION": 0,
            "TEXCOORD_0": 2
          },
          "indices": 3,
          "material": 0,
          "mode": 4
        }
      ]
    },
    {
      "primitives": [
        {
          "attributes": {
            "NORMAL": 5,
            "POSITION": 4,
            "TEXCOORD_0": 6
          },
          "indices": 7,
          "material": 0,
          "mode": 4
        }
      ]
    },
    {
      "primitives": [
        {
          "attributes": {
            "NORMAL": 9,
            "POSITION": 8,
            "TEXCOORD_0": 10
          },
          "indices": 11,
          "material": 0,
          "mode": 4
        }
      ]
    },
    {
      "primitives": [
        {
          "attributes": {
            "NORMAL": 13,
            "POSITION": 12,
            "TEXCOORD_0": 14
          },
          "indices": 15,
          "material": 0,
          "mode": 4
        }
      ]
    },
    {
      "primitives": [
        {
          "attributes": {
            "NORMAL": 17,
            "POSITION": 16,
            "TEXCOORD_0": 18
          },
          "indices": 19,
          "material": 0,
          "mode": 4
        }
      ]
    }
  ],
  "nodes": [
    {
      "children": [
        1
      ],
      "name": "RootNode (gltf orientation matrix)",
      "rotation": [
        -0.70710678118654746,
        -0,
        -0,
        0.70710678118654757
      ]
    },
    {
      "children": [
        2
      ],
      "name": "RootNode (model correction matrix)"
    },
    {
      "children": [
        3,
        4,
        5,
        6,
        7
      ],
      "name": "model_Bald Eagle_20201125_182751315.obj.cleaner.materialmerger.gles"
    },
    {
      "mesh": 0,
      "name": ""
    },
    {
      "mesh": 1,
      "name": ""
    },
    {
      "mesh": 2,
      "name": ""
    },
    {
      "mesh": 3,
      "name": ""
    },
    {
      "mesh": 4,
      "name": ""
    }
  ],
  "samplers": [
    {
      "magFilter": 9729,
      "minFilter": 9987,
      "wrapS": 10497,
      "wrapT": 10497
    }
  ],
  "scene": 0,
  "scenes": [
    {
      "name": "OSG_Scene",
      "nodes": [
        0
      ]
    }
  ],
  "textures": [
    {
      "sampler": 0,
      "source": 0
    }
  ]
}

