{
  "accessors": [
    {
      "bufferView": 2,
      "componentType": 5126,
      "count": 12320,
      "max": [
        48.488079071044922,
        6.8455638885498047,
        52.8934326171875
      ],
      "min": [
        5.3262720108032227,
        -9.9325647354125977,
        7.1298680305480957
      ],
      "type": "VEC3"
    },
    {
      "bufferView": 2,
      "byteOffset": 147840,
      "componentType": 5126,
      "count": 12320,
      "max": [
        0.95479506254196167,
        0.99938058853149414,
        0.99342697858810425
      ],
      "min": [
        -0.96061617136001587,
        -0.99999511241912842,
        -0.99342697858810425
      ],
      "type": "VEC3"
    },
    {
      "bufferView": 1,
      "componentType": 5126,
      "count": 12320,
      "max": [
        1,
        1
      ],
      "min": [
        0,
        0
      ],
      "type": "VEC2"
    },
    {
      "bufferView": 0,
      "componentType": 5125,
      "count": 42702,
      "max": [
        12319
      ],
      "min": [
        0
      ],
      "type": "SCALAR"
    },
    {
      "bufferView": 2,
      "byteOffset": 295680,
      "componentType": 5126,
      "count": 24640,
      "max": [
        57.98388671875,
        1.2534812688827515,
        15.637435913085938
      ],
      "min": [
        48.758205413818359,
        -3.4290127754211426,
        5.8556370735168457
      ],
      "type": "VEC3"
    },
    {
      "bufferView": 2,
      "byteOffset": 591360,
      "componentType": 5126,
      "count": 24640,
      "max": [
        0.95488482713699341,
        0.99938082695007324,
        0.99342745542526245
      ],
      "min": [
        -0.97490435838699341,
        -0.99999511241912842,
        -0.99342632293701172
      ],
      "type": "VEC3"
    },
    {
      "bufferView": 1,
      "byteOffset": 98560,
      "componentType": 5126,
      "count": 24640,
      "max": [
        1,
        1
      ],
      "min": [
        0,
        0
      ],
      "type": "VEC2"
    },
    {
      "bufferView": 0,
      "byteOffset": 170808,
      "componentType": 5125,
      "count": 85404,
      "max": [
        24639
      ],
      "min": [
        0
      ],
      "type": "SCALAR"
    }
  ],
  "asset": {
    "extras": {
      "author": "Chanti (https://sketchfab.com/estevezmary1)",
      "license": "CC-BY-NC-4.0 (http://creativecommons.org/licenses/by-nc/4.0/)",
      "source": "https://sketchfab.com/3d-models/shrub-pack-500b4e919f134717a2571a4342302e35",
      "title": "Shrub Pack"
    },
    "generator": "Sketchfab-8.87.0",
    "version": "2.0"
  },
  "bufferViews": [
    {
      "buffer": 0,
      "byteLength": 512424,
      "byteOffset": 0,
      "name": "floatBufferViews",
      "target": 34963
    },
    {
      "buffer": 0,
      "byteLength": 295680,
      "byteOffset": 512424,
      "byteStride": 8,
      "name": "floatBufferViews",
      "target": 34962
    },
    {
      "buffer": 0,
      "byteLength": 887040,
      "byteOffset": 808104,
      "byteStride": 12,
      "name": "floatBufferViews",
      "target": 34962
    }
  ],
  "buffers": [
    {
      "byteLength": 1695144,
      "uri": "scene.bin"
    }
  ],
  "materials": [
    {
      "doubleSided": true,
      "emissiveFactor": [
        0,
        0,
        0
      ],
      "name": "lambert1",
      "pbrMetallicRoughness": {
        "baseColorFactor": [
          7.526371760356411e-05,
          0.0396002401328494,
          0.0056205483760646668,
          1
        ],
        "metallicFactor": 0,
        "roughnessFactor": 0.59999999999999998
      }
    }
  ],
  "meshes": [
    {
      "name": "pPlane67_lambert1_0",
      "primitives": [
        {
          "attributes": {
            "NORMAL": 1,
            "POSITION": 0,
            "TEXCOORD_0": 2
          },
          "indices": 3,
          "material": 0,
          "mode": 4
        }
      ]
    },
    {
      "name": "pPlane70_lambert1_0",
      "primitives": [
        {
          "attributes": {
            "NORMAL": 5,
            "POSITION": 4,
            "TEXCOORD_0": 6
          },
          "indices": 7,
          "material": 0,
          "mode": 4
        }
      ]
    }
  ],
  "nodes": [
    {
      "children": [
        1
      ],
      "name": "RootNode (gltf orientation matrix)",
      "rotation": [
        -0.70710678118654746,
        -0,
        -0,
        0.70710678118654757
      ]
    },
    {
      "children": [
        2
      ],
      "name": "RootNode (model correction matrix)"
    },
    {
      "children": [
        3
      ],
      "matrix": [
        1,
        0,
        0,
        0,
        0,
        0,
        1,
        0,
        0,
        -1,
        0,
        0,
        0,
        0,
        0,
        1
      ],
      "name": "ef4767c5842b4ff283e5f5fa89588454.fbx"
    },
    {
      "children": [
        4,
        6
      ],
      "name": "RootNode"
    },
    {
      "children": [
        5
      ],
      "matrix": [
        0.35807883739471436,
        0,
        0,
        0,
        0,
        0.35807883739471436,
        0,
        0,
        0,
        0,
        0.35807883739471436,
        0,
        -3.5431902408599854,
        1.7355577945709229,
        3.5527136788005009e-15,
        1
      ],
      "name": "pPlane67"
    },
    {
      "mesh": 0,
      "name": "pPlane67_lambert1_0"
    },
    {
      "children": [
        7
      ],
      "matrix": [
        1,
        0,
        0,
        0,
        0,
        1,
        0,
        0,
        0,
        0,
        1,
        0,
        -60.975540161132812,
        1.4652267694473267,
        0,
        1
      ],
      "name": "pPlane70"
    },
    {
      "mesh": 1,
      "name": "pPlane70_lambert1_0"
    }
  ],
  "scene": 0,
  "scenes": [
    {
      "name": "OSG_Scene",
      "nodes": [
        0
      ]
    }
  ]
}

